#!OML:ASF H:\ManfredETheater\Project 1\Capture day 1\Session 1\subject.ASF
:FULLY-SPECIFIED
:DEGREES
273
root -6.88425 8.65826 -1.83067 16.3776 76.4638 10.9679
lowerback 63.9573 -7.81096 -2.89417
upperback 13.4204 -7.3489 0.39924
thorax -5.95273 -2.36396 4.66229
lowerneck 9.72688 -20.127 -14.9907
upperneck -15.0243 -27.4469 23.934
head -0.438717 -14.7395 9.11255
rclavicle -9.54166e-015 -1.70955e-014
rhumerus -21.0844 -7.35762 -67.0811
rradius 96.8947
rwrist -19.1694
rhand -27.2457 -11.4812
rfingers 7.12502
rthumb -0.657375 -41.4599
lclavicle -9.54166e-015 -1.70955e-014
lhumerus -12.2068 7.16002 27.1743
lradius 86.554
lwrist 5.67039
lhand -23.997 -5.28407
lfingers 7.12502
lthumb 2.48026 24.6813
rfemur -94.3774 -48.7813 6.49338
rtibia 129.141
rfoot -32.1018 0.609671
rtoes -37.8515
lfemur -77.1771 37.4535 15.6945
ltibia 120.22
lfoot -35.4551 -38.6067
ltoes -30.9807
274
root -6.89673 8.71222 -1.71588 18.281 76.6974 12.4843
lowerback 63.7148 -8.20247 -2.53729
upperback 13.3972 -7.57334 0.344507
thorax -5.9981 -2.44709 4.54801
lowerneck 9.72462 -20.1314 -15.0778
upperneck -15.1145 -27.4545 24.013
head -0.43757 -14.7469 9.14536
rclavicle 6.36111e-014 -6.20208e-014
rhumerus -21.2509 -7.04696 -67.1965
rradius 96.9641
rwrist -19.1604
rhand -27.2078 -11.4769
rfingers 7.12502
rthumb -0.620816 -41.4558
lclavicle 6.36111e-014 -6.20208e-014
lhumerus -12.7944 7.52988 27.5768
lradius 86.5724
lwrist 6.12146
lhand -23.7597 -5.03446
lfingers 7.12502
lthumb 2.70943 24.9281
rfemur -95.0174 -49.0915 7.49699
rtibia 129.347
rfoot -32.3416 0.278214
rtoes -37.8844
lfemur -77.1552 36.834 15.4472
ltibia 119.309
lfoot -34.8502 -38.2596
ltoes -31.1509
275
root -6.90887 8.76927 -1.60004 20.1044 76.9348 13.9489
lowerback 63.506 -8.59691 -2.17025
upperback 13.3665 -7.79597 0.289943
thorax -6.05252 -2.52842 4.42922
lowerneck 9.7253 -20.1355 -15.1678
upperneck -15.1956 -27.4635 24.0878
head -0.434246 -14.7543 9.17682
rclavicle -5.40694e-014 6.40087e-014
rhumerus -21.4332 -6.70337 -67.3291
rradius 97.0069
rwrist -19.2211
rhand -27.1807 -11.4684
rfingers 7.12502
rthumb -0.594634 -41.4474
lclavicle -5.40694e-014 6.40087e-014
lhumerus -13.4336 7.93487 27.9697
lradius 86.6839
lwrist 6.55638
lhand -23.462 -4.74382
lfingers 7.12502
lthumb 2.99695 25.2149
rfemur -95.5507 -49.3726 8.47609
rtibia 129.519
rfoot -32.5898 -0.00280647
rtoes -37.8983
lfemur -77.1489 36.2638 15.2125
ltibia 118.422
lfoot -34.0947 -37.9145
ltoes -31.3189
276
root -6.92089 8.829 -1.48333 21.8784 77.1743 15.3982
lowerback 63.3369 -8.99633 -1.80056
upperback 13.3261 -8.02426 0.226768
thorax -6.11887 -2.61044 4.30277
lowerneck 9.72393 -20.1393 -15.2672
upperneck -15.2468 -27.4758 24.1588
head -0.420652 -14.7622 9.20498
rclavicle 2.06736e-014 -6.79844e-014
rhumerus -21.6313 -6.32983 -67.4954
rradius 97.0168
rwrist -19.3484
rhand -27.1534 -11.4437
rfingers 7.12502
rthumb -0.568202 -41.4227
lclavicle 2.06736e-014 -6.79844e-014
lhumerus -14.128 8.36287 28.3352
lradius 86.9021
lwrist 6.95531
lhand -23.1233 -4.41618
lfingers 7.12502
lthumb 3.32402 25.5377
rfemur -95.977 -49.6304 9.40843
rtibia 129.657
rfoot -32.8441 -0.189698
rtoes -37.8381
lfemur -77.1789 35.7487 14.9713
ltibia 117.582
lfoot -33.1313 -37.5687
ltoes -31.4551
277
root -6.93274 8.89061 -1.36632 23.7156 77.4178 16.9472
lowerback 63.1977 -9.40554 -1.43599
upperback 13.2784 -8.26816 0.149456
thorax -6.19452 -2.69724 4.17008
lowerneck 9.7131 -20.1453 -15.3695
upperneck -15.2577 -27.4943 24.2169
head -0.394585 -14.7709 9.22473
rclavicle -6.83819e-014 7.15625e-014
rhumerus -21.8474 -5.92617 -67.7041
rradius 96.9813
rwrist -19.4755
rhand -27.1458 -11.411
rfingers 7.12502
rthumb -0.56095 -41.39
lclavicle -6.83819e-014 7.15625e-014
lhumerus -14.8644 8.80314 28.6747
lradius 87.2327
lwrist 7.28995
lhand -22.7578 -4.07683
lfingers 7.12502
lthumb 3.677 25.8712
rfemur -96.3245 -49.9024 10.2947
rtibia 129.775
rfoot -33.1155 -0.34492
rtoes -37.7773
lfemur -77.2872 35.281 14.6724
ltibia 116.825
lfoot -31.9553 -37.1446
ltoes -31.6039
278
root -6.94463 8.95304 -1.24915 25.653 77.6525 18.6256
lowerback 63.0731 -9.81917 -1.09025
upperback 13.2255 -8.53246 0.0502169
thorax -6.27735 -2.79126 4.03044
lowerneck 9.69004 -20.1516 -15.4848
upperneck -15.2116 -27.5186 24.2667
head -0.348595 -14.7799 9.23649
rclavicle -1.59028e-015 -3.93594e-014
rhumerus -22.0789 -5.49321 -67.9692
rradius 96.8951
rwrist -19.5968
rhand -27.1376 -11.3681
rfingers 7.12502
rthumb -0.553029 -41.3471
lclavicle -1.59028e-015 -3.93594e-014
lhumerus -15.6467 9.24337 28.9708
lradius 87.6811
lwrist 7.56252
lhand -22.3903 -3.69563
lfingers 7.12502
lthumb 4.03185 26.246
rfemur -96.6287 -50.1885 11.1432
rtibia 129.878
rfoot -33.3971 -0.449965
rtoes -37.6711
lfemur -77.5171 34.9081 14.2754
ltibia 116.187
lfoot -30.5299 -36.6172
ltoes -31.7009
279
root -6.95655 9.01495 -1.1322 27.7943 77.8741 20.5309
lowerback 62.9376 -10.2323 -0.775173
upperback 13.1746 -8.8199 -0.0719986
thorax -6.35928 -2.8945 3.88852
lowerneck 9.65959 -20.1594 -15.6047
upperneck -15.1119 -27.5494 24.3069
head -0.2857 -14.7902 9.23998
rclavicle -5.56597e-014 9.78021e-014
rhumerus -22.3305 -5.03961 -68.2859
rradius 96.756
rwrist -19.6896
rhand -27.1127 -11.3199
rfingers 7.12502
rthumb -0.528899 -41.299
lclavicle -5.56597e-014 9.78021e-014
lhumerus -16.467 9.66445 29.2208
lradius 88.2601
lwrist 7.77632
lhand -22.0243 -3.30472
lfingers 7.12502
lthumb 4.38533 26.6299
rfemur -96.9329 -50.5233 11.9544
rtibia 129.978
rfoot -33.6856 -0.456496
rtoes -37.4467
lfemur -77.9226 34.6385 13.7241
ltibia 115.707
lfoot -28.8696 -35.9115
ltoes -31.6946
